<svg width="234" height="31" viewBox="0 0 234 31" fill="none" xmlns="http://www.w3.org/2000/svg">
<g clip-path="url(#clip0_4_4)">
<path d="M13.3207 32.28C18.9307 32.28 21.7357 29.079 21.7357 24.096V15.681H21.7027V5.022L24.6397 3.24H11.5057L14.4427 5.022V25.218C14.4427 30.399 13.3537 31.686 10.6807 31.686H10.2847V31.884C11.3407 32.181 12.2317 32.28 13.3207 32.28ZM43.1264 26.472V9.873L34.6454 12.843L36.5264 14.46V23.931C35.9654 24.129 35.3714 24.261 34.8434 24.261C33.1934 24.261 32.9624 23.172 32.9624 20.4V10.038L24.4814 13.008L26.3624 14.625V21.72C26.3624 25.647 27.6494 27.363 30.6194 27.363C32.4674 27.363 34.3484 26.043 36.5264 24.459V27H44.7764V26.472H43.1264ZM45.9874 27H55.8874V26.472H54.2374V2.25L45.7564 5.22L47.6374 6.837V26.472H45.9874V27ZM62.0555 9.279C64.3985 9.279 65.7185 7.794 65.7185 5.583C65.7185 3.405 64.3985 1.92 62.0555 1.92C59.7125 1.92 58.3925 3.405 58.3925 5.583C58.3925 7.794 59.7125 9.279 62.0555 9.279ZM57.1055 27H67.0055V26.472H65.3555V9.84L56.8745 12.81L58.7555 14.427V26.472H57.1055V27ZM95.6797 26.472L90.3337 20.598C91.2247 18.75 91.7857 16.572 91.9837 14.163L94.9207 12.579H87.0667L89.6737 14.163C90.2347 16.11 90.1357 18.057 89.5417 19.773L84.1297 13.833C83.2387 12.876 82.4467 11.952 81.7207 11.094C85.4167 10.302 86.9017 8.982 86.9017 6.573C86.9017 4.296 84.1957 2.58 80.4997 2.58C76.4077 2.58 73.5697 5.748 73.5697 9.279C73.5697 10.962 74.0317 12.447 75.0877 14.064C71.1277 15.186 68.9167 17.628 68.9167 20.895C68.9167 25.317 72.8107 27.495 78.2557 27.495C81.1267 27.495 83.5357 26.901 85.5157 25.779L86.6377 27H97.4947V26.472H95.6797ZM80.3017 3.24C81.5887 3.24 82.1827 4.362 82.1827 6.87C82.1827 8.025 81.9847 9.444 81.5227 10.863C79.8067 8.817 78.6517 7.035 78.6517 5.418C78.6517 4.263 79.2457 3.24 80.3017 3.24ZM81.8197 25.878C77.7607 25.878 74.8567 22.314 74.8567 16.506C74.8567 15.615 74.9887 14.922 75.2197 14.295C75.8797 15.285 76.7377 16.341 77.8597 17.529L84.9547 25.185C83.9647 25.614 82.9087 25.878 81.8197 25.878ZM122.01 26.472L111.549 2.58H109.833L99.3393 26.472H97.9863V27H105.279V26.472H101.88L103.893 20.268H111.483L114.09 26.472H111.384V27H123.528V26.472H122.01ZM104.058 19.674L107.16 10.104L111.219 19.674H104.058ZM142.979 26.472V15.12C142.979 11.754 141.527 10.005 138.722 10.005C136.478 10.005 134.564 11.292 132.419 13.14V9.84L123.938 12.81L125.819 14.427V26.472H124.169V27H133.739V26.472H132.419V13.602C133.079 13.305 133.739 13.107 134.399 13.107C135.752 13.107 136.379 13.965 136.379 16.539V26.472H135.059V27H144.629V26.472H142.979ZM163.875 8.388C161.895 9.411 160.08 10.335 158.298 11.292C157.143 10.566 155.658 10.17 153.909 10.17C149.124 10.17 146.352 13.074 146.352 16.704C146.352 18.849 147.243 20.565 148.728 21.687C146.781 23.667 146.022 25.251 146.022 27.066C146.022 28.254 146.352 29.244 147.078 29.97C145.692 30.498 144.9 31.389 144.9 32.379C144.9 34.458 147.276 35.448 152.127 35.448C158.199 35.448 162.291 33.006 162.291 29.244C162.291 26.373 160.212 25.185 156.384 25.185H152.589C149.718 25.185 148.695 23.799 149.025 21.918C150.312 22.776 151.962 23.271 153.81 23.271C158.364 23.271 161.103 20.466 161.103 16.737C161.103 14.559 160.278 12.744 158.727 11.589C160.212 11.919 162.324 12.942 163.875 13.866L163.908 13.833V8.421L163.875 8.388ZM156.219 22.314C155.229 22.314 153.975 21.258 152.061 17.727C150.741 15.285 150.081 13.668 150.081 12.513C150.081 11.589 150.675 11.061 151.368 11.061C152.391 11.061 153.546 12.183 155.493 15.648C156.879 18.123 157.473 19.806 157.473 20.862C157.473 21.819 156.978 22.314 156.219 22.314ZM151.5 31.323H155.064C157.671 31.323 158.628 31.719 158.628 32.478C158.628 33.699 156.615 34.623 154.074 34.623C150.708 34.623 148.068 33.204 147.276 30.135C148.167 30.894 149.553 31.323 151.5 31.323ZM179.514 23.997C179.217 24.063 178.887 24.096 178.557 24.096C176.346 24.096 173.97 22.875 172.089 21.027C176.049 19.542 178.161 17.133 178.161 14.394C178.161 11.985 176.016 10.17 172.914 10.17C167.634 10.17 164.4 14.163 164.4 18.981C164.4 24.096 168.228 27.33 172.881 27.33C175.95 27.33 178.161 26.142 179.547 24.03L179.514 23.997ZM169.845 11.325C171.264 11.325 173.178 13.767 173.178 16.638C173.178 18.321 172.815 19.641 171.891 20.829C169.911 18.783 168.492 16.011 168.492 13.272C168.492 12.051 168.987 11.325 169.845 11.325ZM180.501 27H190.401V26.472H188.751V2.25L180.27 5.22L182.151 6.837V26.472H180.501V27ZM191.619 27H201.519V26.472H199.869V2.25L191.388 5.22L193.269 6.837V26.472H191.619V27ZM220.92 26.472V9.873L212.439 12.843L214.32 14.46V23.931C213.759 24.129 213.165 24.261 212.637 24.261C210.987 24.261 210.756 23.172 210.756 20.4V10.038L202.275 13.008L204.156 14.625V21.72C204.156 25.647 205.443 27.363 208.413 27.363C210.261 27.363 212.142 26.043 214.32 24.459V27H222.57V26.472H220.92Z" fill="#FFA800"/>
</g>
<defs>
<clipPath id="clip0_4_4">
<rect width="234" height="31" fill="white"/>
</clipPath>
</defs>
</svg>
