<svg width="107" height="90" viewBox="0 0 107 90" fill="none" xmlns="http://www.w3.org/2000/svg">
<path d="M31.146 0.758597C31.2662 -0.252866 32.7339 -0.252866 32.854 0.758597L33.8608 9.24385C35.1608 20.2006 43.7994 28.8392 54.7561 30.1392L63.2413 31.146C64.2529 31.2662 64.2529 32.7339 63.2413 32.854L54.7561 33.8608C43.7994 35.1608 35.1608 43.7994 33.8608 54.7561L32.854 63.2413C32.7339 64.2529 31.2662 64.2529 31.146 63.2413L30.1392 54.7561C28.8392 43.7994 20.2006 35.1608 9.24385 33.8608L0.758597 32.854C-0.252866 32.7339 -0.252866 31.2662 0.758597 31.146L9.24385 30.1392C20.2006 28.8392 28.8392 20.2006 30.1392 9.24385L31.146 0.758597Z" fill="#FFDA18"/>
<path d="M79.7928 37.6282C79.8923 36.7906 81.1077 36.7906 81.2072 37.6282L82.041 44.6551C83.1176 53.7286 90.2714 60.8824 99.3449 61.959L106.372 62.7928C107.209 62.8923 107.209 64.1077 106.372 64.2072L99.3449 65.041C90.2714 66.1176 83.1176 73.2714 82.041 82.3449L81.2072 89.3717C81.1077 90.2094 79.8923 90.2094 79.7928 89.3717L78.959 82.3449C77.8824 73.2714 70.7286 66.1176 61.6551 65.041L54.6282 64.2072C53.7906 64.1077 53.7906 62.8923 54.6282 62.7928L61.6551 61.959C70.7286 60.8824 77.8824 53.7286 78.959 44.6551L79.7928 37.6282Z" fill="#413FAD"/>
<path d="M90.573 5.3793C90.6331 4.87357 91.3669 4.87357 91.427 5.3793L91.9304 9.62193C92.5804 15.1003 96.8997 19.4196 102.378 20.0696L106.621 20.573C107.126 20.6331 107.126 21.3669 106.621 21.427L102.378 21.9304C96.8997 22.5804 92.5804 26.8997 91.9304 32.378L91.427 36.6207C91.3669 37.1264 90.6331 37.1264 90.573 36.6207L90.0696 32.378C89.4196 26.8997 85.1003 22.5804 79.6219 21.9304L75.3793 21.427C74.8736 21.3669 74.8736 20.6331 75.3793 20.573L79.6219 20.0696C85.1003 19.4196 89.4196 15.1003 90.0696 9.62193L90.573 5.3793Z" fill="#173B40"/>
</svg>
